<mxfile host="app.diagrams.net" modified="2024-05-26T09:03:36.056Z" agent="Mozilla/5.0 (Windows NT 10.0; Win64; x64) AppleWebKit/537.36 (KHTML, like Gecko) Chrome/125.0.0.0 Safari/537.36" etag="a0CR9htYD5MPlHP7qs-q" version="24.4.6" type="onedrive">
  <diagram name="Side-1" id="qpUujwPPZ8EugAAgpqj8">
    <mxGraphModel grid="1" page="1" gridSize="10" guides="1" tooltips="1" connect="1" arrows="1" fold="1" pageScale="1" pageWidth="827" pageHeight="1169" math="0" shadow="0">
      <root>
        <mxCell id="0" />
        <mxCell id="1" parent="0" />
        <mxCell id="sZJGMw_1iEZBsUtE1e_O-15" style="edgeStyle=orthogonalEdgeStyle;rounded=0;orthogonalLoop=1;jettySize=auto;html=1;exitX=1;exitY=0.5;exitDx=0;exitDy=0;entryX=0;entryY=0.5;entryDx=0;entryDy=0;endArrow=none;endFill=0;" edge="1" parent="1" source="sZJGMw_1iEZBsUtE1e_O-1" target="sZJGMw_1iEZBsUtE1e_O-5">
          <mxGeometry relative="1" as="geometry" />
        </mxCell>
        <mxCell id="sZJGMw_1iEZBsUtE1e_O-20" style="edgeStyle=orthogonalEdgeStyle;rounded=0;orthogonalLoop=1;jettySize=auto;html=1;exitX=0.5;exitY=0;exitDx=0;exitDy=0;entryX=0.5;entryY=1;entryDx=0;entryDy=0;endArrow=none;endFill=0;" edge="1" parent="1" source="sZJGMw_1iEZBsUtE1e_O-1" target="sZJGMw_1iEZBsUtE1e_O-19">
          <mxGeometry relative="1" as="geometry" />
        </mxCell>
        <mxCell id="sZJGMw_1iEZBsUtE1e_O-26" style="edgeStyle=orthogonalEdgeStyle;rounded=0;orthogonalLoop=1;jettySize=auto;html=1;exitX=1;exitY=1;exitDx=0;exitDy=0;entryX=0.5;entryY=0;entryDx=0;entryDy=0;endArrow=none;endFill=0;" edge="1" parent="1" source="sZJGMw_1iEZBsUtE1e_O-1" target="sZJGMw_1iEZBsUtE1e_O-25">
          <mxGeometry relative="1" as="geometry" />
        </mxCell>
        <mxCell id="8rqM9l12NfweffCkAg33-6" style="edgeStyle=orthogonalEdgeStyle;rounded=0;orthogonalLoop=1;jettySize=auto;html=1;exitX=0.25;exitY=1;exitDx=0;exitDy=0;entryX=0.5;entryY=0;entryDx=0;entryDy=0;endArrow=none;endFill=0;" edge="1" parent="1" source="sZJGMw_1iEZBsUtE1e_O-1" target="8rqM9l12NfweffCkAg33-5">
          <mxGeometry relative="1" as="geometry" />
        </mxCell>
        <mxCell id="8rqM9l12NfweffCkAg33-13" style="edgeStyle=orthogonalEdgeStyle;rounded=0;orthogonalLoop=1;jettySize=auto;html=1;exitX=0;exitY=0.5;exitDx=0;exitDy=0;entryX=1;entryY=0.5;entryDx=0;entryDy=0;endArrow=none;endFill=0;" edge="1" parent="1" source="sZJGMw_1iEZBsUtE1e_O-1" target="8rqM9l12NfweffCkAg33-10">
          <mxGeometry relative="1" as="geometry" />
        </mxCell>
        <mxCell id="sZJGMw_1iEZBsUtE1e_O-1" value="Pigeons" style="rounded=0;whiteSpace=wrap;html=1;" vertex="1" parent="1">
          <mxGeometry x="130" y="140" width="120" height="60" as="geometry" />
        </mxCell>
        <mxCell id="sZJGMw_1iEZBsUtE1e_O-18" style="edgeStyle=orthogonalEdgeStyle;rounded=0;orthogonalLoop=1;jettySize=auto;html=1;exitX=0.5;exitY=0;exitDx=0;exitDy=0;entryX=0.5;entryY=1;entryDx=0;entryDy=0;endArrow=none;endFill=0;" edge="1" parent="1" source="sZJGMw_1iEZBsUtE1e_O-2" target="sZJGMw_1iEZBsUtE1e_O-17">
          <mxGeometry relative="1" as="geometry" />
        </mxCell>
        <mxCell id="8rqM9l12NfweffCkAg33-9" style="edgeStyle=orthogonalEdgeStyle;rounded=0;orthogonalLoop=1;jettySize=auto;html=1;exitX=1;exitY=0.5;exitDx=0;exitDy=0;entryX=0;entryY=0.5;entryDx=0;entryDy=0;endArrow=none;endFill=0;" edge="1" parent="1" source="sZJGMw_1iEZBsUtE1e_O-2" target="8rqM9l12NfweffCkAg33-8">
          <mxGeometry relative="1" as="geometry" />
        </mxCell>
        <mxCell id="sZJGMw_1iEZBsUtE1e_O-2" value="PigeonHoles" style="rounded=0;whiteSpace=wrap;html=1;" vertex="1" parent="1">
          <mxGeometry x="550" y="150" width="120" height="40" as="geometry" />
        </mxCell>
        <mxCell id="sZJGMw_1iEZBsUtE1e_O-11" style="edgeStyle=orthogonalEdgeStyle;rounded=0;orthogonalLoop=1;jettySize=auto;html=1;exitX=0;exitY=0.75;exitDx=0;exitDy=0;entryX=1;entryY=0.5;entryDx=0;entryDy=0;endArrow=none;endFill=0;" edge="1" parent="1" source="sZJGMw_1iEZBsUtE1e_O-3" target="sZJGMw_1iEZBsUtE1e_O-8">
          <mxGeometry relative="1" as="geometry" />
        </mxCell>
        <mxCell id="8rqM9l12NfweffCkAg33-2" style="edgeStyle=orthogonalEdgeStyle;rounded=0;orthogonalLoop=1;jettySize=auto;html=1;exitX=0.75;exitY=0;exitDx=0;exitDy=0;endArrow=none;endFill=0;" edge="1" parent="1" source="sZJGMw_1iEZBsUtE1e_O-3" target="8rqM9l12NfweffCkAg33-1">
          <mxGeometry relative="1" as="geometry" />
        </mxCell>
        <mxCell id="sZJGMw_1iEZBsUtE1e_O-3" value="Players" style="rounded=0;whiteSpace=wrap;html=1;" vertex="1" parent="1">
          <mxGeometry x="640" y="480" width="120" height="60" as="geometry" />
        </mxCell>
        <mxCell id="sZJGMw_1iEZBsUtE1e_O-13" style="edgeStyle=orthogonalEdgeStyle;rounded=0;orthogonalLoop=1;jettySize=auto;html=1;exitX=0;exitY=0.5;exitDx=0;exitDy=0;entryX=0.5;entryY=1;entryDx=0;entryDy=0;endArrow=none;endFill=0;" edge="1" parent="1" source="sZJGMw_1iEZBsUtE1e_O-4" target="sZJGMw_1iEZBsUtE1e_O-7">
          <mxGeometry relative="1" as="geometry" />
        </mxCell>
        <mxCell id="sZJGMw_1iEZBsUtE1e_O-22" style="edgeStyle=orthogonalEdgeStyle;rounded=0;orthogonalLoop=1;jettySize=auto;html=1;exitX=0.5;exitY=1;exitDx=0;exitDy=0;entryX=0.5;entryY=0;entryDx=0;entryDy=0;endArrow=none;endFill=0;" edge="1" parent="1" source="sZJGMw_1iEZBsUtE1e_O-4" target="sZJGMw_1iEZBsUtE1e_O-21">
          <mxGeometry relative="1" as="geometry" />
        </mxCell>
        <mxCell id="8rqM9l12NfweffCkAg33-4" style="edgeStyle=orthogonalEdgeStyle;rounded=0;orthogonalLoop=1;jettySize=auto;html=1;exitX=0.5;exitY=0;exitDx=0;exitDy=0;entryX=0.5;entryY=1;entryDx=0;entryDy=0;endArrow=none;endFill=0;" edge="1" parent="1" source="sZJGMw_1iEZBsUtE1e_O-4" target="8rqM9l12NfweffCkAg33-3">
          <mxGeometry relative="1" as="geometry" />
        </mxCell>
        <mxCell id="sZJGMw_1iEZBsUtE1e_O-4" value="Accesories" style="rounded=0;whiteSpace=wrap;html=1;" vertex="1" parent="1">
          <mxGeometry x="250" y="490" width="120" height="60" as="geometry" />
        </mxCell>
        <mxCell id="sZJGMw_1iEZBsUtE1e_O-16" style="edgeStyle=orthogonalEdgeStyle;rounded=0;orthogonalLoop=1;jettySize=auto;html=1;exitX=1;exitY=0.5;exitDx=0;exitDy=0;entryX=0;entryY=0.5;entryDx=0;entryDy=0;strokeWidth=7;" edge="1" parent="1" source="sZJGMw_1iEZBsUtE1e_O-5" target="sZJGMw_1iEZBsUtE1e_O-2">
          <mxGeometry relative="1" as="geometry" />
        </mxCell>
        <mxCell id="sZJGMw_1iEZBsUtE1e_O-5" value="Lives In" style="rhombus;whiteSpace=wrap;html=1;" vertex="1" parent="1">
          <mxGeometry x="320" y="130" width="80" height="80" as="geometry" />
        </mxCell>
        <mxCell id="sZJGMw_1iEZBsUtE1e_O-9" style="edgeStyle=orthogonalEdgeStyle;rounded=0;orthogonalLoop=1;jettySize=auto;html=1;exitX=0.5;exitY=0;exitDx=0;exitDy=0;entryX=0.5;entryY=1;entryDx=0;entryDy=0;endArrow=none;endFill=0;" edge="1" parent="1" source="sZJGMw_1iEZBsUtE1e_O-6" target="sZJGMw_1iEZBsUtE1e_O-2">
          <mxGeometry relative="1" as="geometry" />
        </mxCell>
        <mxCell id="sZJGMw_1iEZBsUtE1e_O-10" style="edgeStyle=orthogonalEdgeStyle;rounded=0;orthogonalLoop=1;jettySize=auto;html=1;exitX=0.5;exitY=1;exitDx=0;exitDy=0;endArrow=open;endFill=0;strokeWidth=7;curved=1;endSize=21;startSize=5;targetPerimeterSpacing=0;" edge="1" parent="1" source="sZJGMw_1iEZBsUtE1e_O-6" target="sZJGMw_1iEZBsUtE1e_O-3">
          <mxGeometry relative="1" as="geometry" />
        </mxCell>
        <mxCell id="sZJGMw_1iEZBsUtE1e_O-6" value="Manages" style="rhombus;whiteSpace=wrap;html=1;" vertex="1" parent="1">
          <mxGeometry x="600" y="260" width="80" height="80" as="geometry" />
        </mxCell>
        <mxCell id="sZJGMw_1iEZBsUtE1e_O-14" style="edgeStyle=orthogonalEdgeStyle;rounded=0;orthogonalLoop=1;jettySize=auto;html=1;exitX=0.5;exitY=0;exitDx=0;exitDy=0;endArrow=none;endFill=0;" edge="1" parent="1" source="sZJGMw_1iEZBsUtE1e_O-7" target="sZJGMw_1iEZBsUtE1e_O-1">
          <mxGeometry relative="1" as="geometry" />
        </mxCell>
        <mxCell id="sZJGMw_1iEZBsUtE1e_O-7" value="Wears" style="rhombus;whiteSpace=wrap;html=1;" vertex="1" parent="1">
          <mxGeometry x="150" y="370" width="80" height="80" as="geometry" />
        </mxCell>
        <mxCell id="sZJGMw_1iEZBsUtE1e_O-12" style="edgeStyle=orthogonalEdgeStyle;rounded=0;orthogonalLoop=1;jettySize=auto;html=1;exitX=0;exitY=0.5;exitDx=0;exitDy=0;entryX=1;entryY=0.5;entryDx=0;entryDy=0;endArrow=none;endFill=0;" edge="1" parent="1" source="sZJGMw_1iEZBsUtE1e_O-8" target="sZJGMw_1iEZBsUtE1e_O-4">
          <mxGeometry relative="1" as="geometry" />
        </mxCell>
        <mxCell id="sZJGMw_1iEZBsUtE1e_O-24" style="edgeStyle=orthogonalEdgeStyle;rounded=0;orthogonalLoop=1;jettySize=auto;html=1;exitX=0.5;exitY=1;exitDx=0;exitDy=0;entryX=0.5;entryY=0;entryDx=0;entryDy=0;endArrow=none;endFill=0;" edge="1" parent="1" source="sZJGMw_1iEZBsUtE1e_O-8" target="sZJGMw_1iEZBsUtE1e_O-23">
          <mxGeometry relative="1" as="geometry" />
        </mxCell>
        <mxCell id="sZJGMw_1iEZBsUtE1e_O-8" value="Owns" style="rhombus;whiteSpace=wrap;html=1;" vertex="1" parent="1">
          <mxGeometry x="460" y="520" width="80" height="80" as="geometry" />
        </mxCell>
        <mxCell id="sZJGMw_1iEZBsUtE1e_O-17" value="Position" style="ellipse;whiteSpace=wrap;html=1;" vertex="1" parent="1">
          <mxGeometry x="580" y="70" width="60" height="40" as="geometry" />
        </mxCell>
        <mxCell id="sZJGMw_1iEZBsUtE1e_O-19" value="State" style="ellipse;whiteSpace=wrap;html=1;" vertex="1" parent="1">
          <mxGeometry x="150" y="70" width="60" height="40" as="geometry" />
        </mxCell>
        <mxCell id="sZJGMw_1iEZBsUtE1e_O-21" value="Price" style="ellipse;whiteSpace=wrap;html=1;" vertex="1" parent="1">
          <mxGeometry x="275" y="600" width="70" height="40" as="geometry" />
        </mxCell>
        <mxCell id="sZJGMw_1iEZBsUtE1e_O-23" value="Amount" style="ellipse;whiteSpace=wrap;html=1;" vertex="1" parent="1">
          <mxGeometry x="475" y="630" width="50" height="40" as="geometry" />
        </mxCell>
        <mxCell id="sZJGMw_1iEZBsUtE1e_O-27" style="edgeStyle=orthogonalEdgeStyle;rounded=0;orthogonalLoop=1;jettySize=auto;html=1;exitX=0.5;exitY=1;exitDx=0;exitDy=0;entryX=0;entryY=0.25;entryDx=0;entryDy=0;strokeWidth=7;" edge="1" parent="1" source="sZJGMw_1iEZBsUtE1e_O-25" target="sZJGMw_1iEZBsUtE1e_O-3">
          <mxGeometry relative="1" as="geometry" />
        </mxCell>
        <mxCell id="sZJGMw_1iEZBsUtE1e_O-25" value="First Owner" style="rhombus;whiteSpace=wrap;html=1;" vertex="1" parent="1">
          <mxGeometry x="395" y="310" width="80" height="80" as="geometry" />
        </mxCell>
        <mxCell id="sZJGMw_1iEZBsUtE1e_O-31" style="edgeStyle=orthogonalEdgeStyle;rounded=0;orthogonalLoop=1;jettySize=auto;html=1;exitX=1;exitY=0.5;exitDx=0;exitDy=0;entryX=0;entryY=0.25;entryDx=0;entryDy=0;endArrow=none;endFill=0;" edge="1" parent="1" source="sZJGMw_1iEZBsUtE1e_O-30" target="sZJGMw_1iEZBsUtE1e_O-1">
          <mxGeometry relative="1" as="geometry" />
        </mxCell>
        <mxCell id="sZJGMw_1iEZBsUtE1e_O-30" value="Chance" style="ellipse;whiteSpace=wrap;html=1;" vertex="1" parent="1">
          <mxGeometry y="90" width="70" height="50" as="geometry" />
        </mxCell>
        <mxCell id="8rqM9l12NfweffCkAg33-1" value="&lt;u&gt;Id&lt;/u&gt;" style="ellipse;whiteSpace=wrap;html=1;" vertex="1" parent="1">
          <mxGeometry x="710" y="370" width="40" height="30" as="geometry" />
        </mxCell>
        <mxCell id="8rqM9l12NfweffCkAg33-3" value="&lt;u style=&quot;&quot;&gt;Id&lt;/u&gt;" style="ellipse;whiteSpace=wrap;html=1;" vertex="1" parent="1">
          <mxGeometry x="285" y="400" width="50" height="30" as="geometry" />
        </mxCell>
        <mxCell id="8rqM9l12NfweffCkAg33-5" value="&lt;u&gt;Id&lt;/u&gt;" style="ellipse;whiteSpace=wrap;html=1;" vertex="1" parent="1">
          <mxGeometry x="80" y="260" width="50" height="30" as="geometry" />
        </mxCell>
        <mxCell id="8rqM9l12NfweffCkAg33-8" value="&lt;u&gt;Id&lt;/u&gt;" style="ellipse;whiteSpace=wrap;html=1;" vertex="1" parent="1">
          <mxGeometry x="690" y="155" width="50" height="30" as="geometry" />
        </mxCell>
        <mxCell id="8rqM9l12NfweffCkAg33-10" value="Intelligence" style="ellipse;whiteSpace=wrap;html=1;" vertex="1" parent="1">
          <mxGeometry x="-100" y="145" width="90" height="50" as="geometry" />
        </mxCell>
        <mxCell id="8rqM9l12NfweffCkAg33-14" style="edgeStyle=orthogonalEdgeStyle;rounded=0;orthogonalLoop=1;jettySize=auto;html=1;exitX=0.5;exitY=0;exitDx=0;exitDy=0;entryX=0;entryY=0.75;entryDx=0;entryDy=0;endArrow=none;endFill=0;" edge="1" parent="1" source="8rqM9l12NfweffCkAg33-11" target="sZJGMw_1iEZBsUtE1e_O-1">
          <mxGeometry relative="1" as="geometry" />
        </mxCell>
        <mxCell id="8rqM9l12NfweffCkAg33-11" value="Constitution" style="ellipse;whiteSpace=wrap;html=1;" vertex="1" parent="1">
          <mxGeometry x="-20" y="240" width="80" height="40" as="geometry" />
        </mxCell>
        <mxCell id="8rqM9l12NfweffCkAg33-17" style="edgeStyle=orthogonalEdgeStyle;rounded=0;orthogonalLoop=1;jettySize=auto;html=1;exitX=0.5;exitY=1;exitDx=0;exitDy=0;entryX=0.5;entryY=0;entryDx=0;entryDy=0;endArrow=none;endFill=0;" edge="1" parent="1" source="8rqM9l12NfweffCkAg33-15" target="8rqM9l12NfweffCkAg33-16">
          <mxGeometry relative="1" as="geometry" />
        </mxCell>
        <mxCell id="8rqM9l12NfweffCkAg33-21" style="edgeStyle=orthogonalEdgeStyle;rounded=0;orthogonalLoop=1;jettySize=auto;html=1;exitX=0.25;exitY=0;exitDx=0;exitDy=0;entryX=0.5;entryY=1;entryDx=0;entryDy=0;endArrow=none;endFill=0;" edge="1" parent="1" source="8rqM9l12NfweffCkAg33-15" target="8rqM9l12NfweffCkAg33-19">
          <mxGeometry relative="1" as="geometry" />
        </mxCell>
        <mxCell id="8rqM9l12NfweffCkAg33-22" style="edgeStyle=orthogonalEdgeStyle;rounded=0;orthogonalLoop=1;jettySize=auto;html=1;exitX=0.75;exitY=0;exitDx=0;exitDy=0;entryX=0.5;entryY=1;entryDx=0;entryDy=0;endArrow=none;endFill=0;" edge="1" parent="1" source="8rqM9l12NfweffCkAg33-15" target="8rqM9l12NfweffCkAg33-20">
          <mxGeometry relative="1" as="geometry" />
        </mxCell>
        <mxCell id="8rqM9l12NfweffCkAg33-24" style="edgeStyle=orthogonalEdgeStyle;rounded=0;orthogonalLoop=1;jettySize=auto;html=1;exitX=1;exitY=0.5;exitDx=0;exitDy=0;endArrow=none;endFill=0;" edge="1" parent="1" source="8rqM9l12NfweffCkAg33-15" target="8rqM9l12NfweffCkAg33-23">
          <mxGeometry relative="1" as="geometry" />
        </mxCell>
        <mxCell id="8rqM9l12NfweffCkAg33-15" value="&amp;nbsp;Highscore" style="whiteSpace=wrap;html=1;" vertex="1" parent="1">
          <mxGeometry x="820" y="220" width="120" height="40" as="geometry" />
        </mxCell>
        <mxCell id="8rqM9l12NfweffCkAg33-18" style="edgeStyle=orthogonalEdgeStyle;rounded=0;orthogonalLoop=1;jettySize=auto;html=1;exitX=0.5;exitY=1;exitDx=0;exitDy=0;entryX=1;entryY=0.5;entryDx=0;entryDy=0;strokeWidth=7;endArrow=block;endFill=1;" edge="1" parent="1" source="8rqM9l12NfweffCkAg33-16" target="sZJGMw_1iEZBsUtE1e_O-3">
          <mxGeometry relative="1" as="geometry" />
        </mxCell>
        <mxCell id="8rqM9l12NfweffCkAg33-16" value="Got" style="rhombus;whiteSpace=wrap;html=1;" vertex="1" parent="1">
          <mxGeometry x="840" y="330" width="80" height="80" as="geometry" />
        </mxCell>
        <mxCell id="8rqM9l12NfweffCkAg33-19" value="Game" style="ellipse;whiteSpace=wrap;html=1;" vertex="1" parent="1">
          <mxGeometry x="790" y="140" width="60" height="40" as="geometry" />
        </mxCell>
        <mxCell id="8rqM9l12NfweffCkAg33-20" value="Score" style="ellipse;whiteSpace=wrap;html=1;" vertex="1" parent="1">
          <mxGeometry x="910" y="140" width="50" height="40" as="geometry" />
        </mxCell>
        <mxCell id="8rqM9l12NfweffCkAg33-23" value="Score dateTime" style="ellipse;whiteSpace=wrap;html=1;" vertex="1" parent="1">
          <mxGeometry x="980" y="215" width="110" height="50" as="geometry" />
        </mxCell>
      </root>
    </mxGraphModel>
  </diagram>
</mxfile>
